<?xml version="1.0" encoding="UTF-8"?>
<svg width="44px" height="48px" viewBox="0 0 44 48" version="1.1" xmlns="http://www.w3.org/2000/svg" xmlns:xlink="http://www.w3.org/1999/xlink">
    <!-- Generator: Sketch 61.2 (89653) - https://sketch.com -->
    <title>ic-technology-phone-gap</title>
    <desc>Created with Sketch.</desc>
    <g id="Page-1" stroke="none" stroke-width="1" fill="none" fill-rule="evenodd">
        <g id="ic-technology-phone-gap" fill="#252B33" fill-rule="nonzero">
            <path d="M17.2489708,4.23981966 C17.2489708,4.23981966 16.9431736,-0.566805305 21.8549426,0.0556238267 C26.7651272,0.674852808 37.9734675,2.38053264 37.9734675,2.38053264 C37.9734675,2.38053264 41.2073129,3.15976911 41.3483283,6.87514301 L41.3483283,6.87514301 C41.2791026,5.05123219 41.3156458,5.9955784 41.3522376,6.94993632 L41.36,7.161 L41.3599147,7.14869904 L41.3599147,7.14869904 L41.356,7.084 L41.3636793,7.27183749 L41.3636793,7.27183749 L41.37,7.437 L41.3681601,7.36578606 C41.3668903,7.33257174 41.365599,7.29881061 41.3642917,7.26464282 L41.36,7.161 L41.3673046,7.30761965 C41.6204445,12.6239775 43.4614729,39.9373028 43.4994054,40.4998991 C43.5,40.5087172 43.3478936,44.3808982 40.2772458,45.0017274 L40.2772458,45.0017274 L23.3902667,47.9506655 C23.3902667,47.9506655 18.6115907,48.7827043 18.480082,43.6128623 C18.3644176,39.2734593 17.2489708,4.23981966 17.2489708,4.23981966 Z M7.58229227,8.01919655 C7.58229227,8.01919655 7.3129372,4.19981778 11.5909296,4.68944071 C12.7792609,4.82704714 14.3858847,4.99665507 16.0907439,5.16466294 C16.1287705,6.36151896 16.2032393,8.6848277 16.2967213,11.6305656 C15.0513502,11.5297608 13.9073833,11.4353564 13.0755515,11.3777537 C9.83853719,11.1505431 10.0571901,13.9890759 10.0571901,13.9890759 C10.0571901,13.9890759 10.3740785,29.3433946 10.4231962,32.0523214 C10.4913271,35.722893 13.6459504,35.2652717 13.6459504,35.2652717 L13.6459504,35.2652717 L17.0287333,34.9356563 C17.1301376,38.1678076 17.2109443,40.8575333 17.2584774,42.4592084 L17.2584774,42.4592084 L12.4687103,43.0784375 C12.4687103,43.0784375 8.3063821,43.7392683 8.19071785,39.6254758 C8.09289444,36.2525499 7.60247298,9.13588817 7.58289525,8.05257087 Z M24.0018611,8.59682357 C20.2388122,8.31201024 20.4907384,11.7841727 20.4907384,11.7841727 C20.4907384,11.7841727 21.2148281,30.7194588 21.275037,34.0252136 C21.3574279,38.5118237 25.0143194,37.9485973 25.0143194,37.9485973 L25.0143194,37.9485973 L37.5710193,36.6349357 C41.0726354,36.0285074 40.7953581,33.2155758 40.7953581,33.2155758 C40.7953581,33.2155758 39.7321977,16.1011748 39.6165335,13.0194306 C39.5087914,10.1840979 37.0449848,9.59207015 37.0449848,9.59207015 C37.0449848,9.59207015 27.8425476,8.88483704 24.0018611,8.59682357 Z M0.00201379328,12.5024411 C-0.00531160032,12.3745064 -0.113063535,9.82012083 2.98741149,10.164897 C3.87311438,10.2593014 5.11214775,10.3681065 6.43674096,10.4689112 C6.45892314,11.6625671 6.48744309,13.2306405 6.52071636,15.0243244 C5.56529805,14.9667217 4.70019291,14.9107191 4.09018289,14.8707172 C1.68341602,14.7075096 1.84502907,16.7092032 1.84502907,16.7092032 C1.84502907,16.7092032 2.07952642,27.5257095 2.11755303,29.4313986 C2.17142405,32.0171198 4.51164434,31.6971046 4.51164434,31.6971046 L4.51164434,31.6971046 L6.83126691,31.5306968 C6.86929353,33.5771927 6.90732012,35.4108785 6.93584007,36.8493459 L6.93584007,36.8493459 L3.63544812,37.2061627 C3.63544812,37.2061627 0.544202476,37.6765846 0.457058175,34.777249 C0.387497335,32.4044549 0.0208418845,13.4647463 0.00299763339,12.5422697 Z M22.1417265,10.2577013 C22.5853703,9.78567923 23.312629,9.74567735 23.911548,9.79367959 C24.9558851,9.86830709 24.0713914,9.8041556 23.9239762,9.79422705 L23.925,9.794 L24.0422524,9.80301399 L24.0422524,9.80301399 L24.072,9.805 L24.1944656,9.81402975 C25.2642896,9.89145094 26.6830796,9.99909875 28.1839842,10.1166165 L28.5951573,10.1488962 C28.7646927,14.0818803 29.515718,30.8330644 29.7581377,36.2493178 C27.398904,36.4957293 22.7865943,38.0158004 22.4839658,34.4140319 L22.4839658,34.4140319 L24.765562,34.1932215 C27.77917,33.6955984 27.5415038,31.3898904 27.5415038,31.3898904 L27.5410636,31.3799431 C27.5226642,30.9641518 26.9331276,17.6394218 26.8364272,15.1555305 C26.7397762,12.8354219 24.6197934,12.3537994 24.6197934,12.3537994 C24.6197934,12.3537994 23.388682,12.2433942 21.6917451,12.0945873 C21.6648095,11.4577575 21.6727318,10.7537245 22.1417265,10.2577013 Z M11.5592408,12.9282263 C12.3768127,12.0561855 14.9261793,12.7266169 15.9418064,12.8098208 C16.0051841,13.0162304 16.0463795,13.2466412 16.0574706,13.499453 L16.0567021,13.4815819 L16.0567021,13.4815819 L16.056,13.484 L16.0570303,13.4886462 L16.057,13.505 L16.058,13.53 L16.1424347,15.7249012 C16.2140388,17.9512454 16.25005,20.1798936 16.2908526,22.4073899 L16.3347479,24.6343741 C16.4012945,27.6505153 16.6880784,30.7562608 16.5264653,33.7708017 C14.648902,33.9548105 11.6558917,34.8652531 11.6067741,32.0235201 C11.6036052,31.8123103 11.5972674,31.5274967 11.5909296,31.1738802 L11.5909296,31.1738802 L12.7650009,31.085876 C15.0022325,30.7418599 14.824775,29.116184 14.824775,29.116184 C14.824775,29.116184 14.8342817,19.1493174 14.7613974,17.3700342 C14.6932664,15.7379578 13.1167469,15.3971418 13.1167469,15.3971418 C13.1167469,15.3971418 12.3609683,15.3539398 11.2677035,15.2915369 C11.255028,14.6339061 11.0411284,13.477052 11.5592408,12.9282263 Z" id="Combined-Shape-Copy-6"></path>
        </g>
    </g>
</svg>