<?xml version="1.0" encoding="UTF-8"?>
<svg width="116px" height="50px" viewBox="0 0 116 50" version="1.1" xmlns="http://www.w3.org/2000/svg" xmlns:xlink="http://www.w3.org/1999/xlink">
    <!-- Generator: Sketch 51.3 (57544) - http://www.bohemiancoding.com/sketch -->
    <title>INIC-LWS [-20 -1714 -4921 -70]</title>
    <desc>Created with Sketch.</desc>
    <defs></defs>
    <g id="Symbols" stroke="none" stroke-width="1" fill="none" fill-rule="evenodd">
        <g id="Logo" fill="#252B33">
            <path d="M-1.42108547e-14,49.9999999 L-1.42108547e-14,27.3437499 L4.86851597,27.3437499 L4.86851597,49.9999999 L-1.42108547e-14,49.9999999 Z M10.9541609,32.8547296 L10.9541609,35.3040539 C12.0223418,33.5206127 14.0264097,32.8547296 16.3643149,32.8547296 C18.2991331,32.8547296 20.0940362,33.5032442 21.2932204,34.8002924 C22.4924045,36.0973406 23.0919876,37.860489 23.0919876,40.0897906 L23.0919876,50 L18.2569349,50 L18.2569349,40.7889772 C18.2569349,39.6945927 17.6654574,38.8484841 17.0910582,38.250626 C16.5166591,37.6527678 15.497687,37.3538431 14.4899692,37.3538431 C13.4822514,37.3538431 12.670886,37.8293768 12.1168057,38.2506258 C11.5627254,38.6718749 11.0302797,39.6945927 11.0302797,40.7889772 L11.0302795,49.9999999 L6.08564496,49.9999999 L6.08564496,32.8547296 L10.9541609,32.8547296 Z M62.0735786,41.4117781 C62.0735786,40.0401497 61.6429321,38.9854663 60.7816261,38.2476964 C59.9203201,37.5099266 58.930997,37.1410472 57.8136271,37.1410472 C56.6962572,37.1410472 55.7069341,37.5151221 54.8456281,38.2632831 C53.9843222,39.011444 53.5536757,40.0713229 53.5536757,41.4429514 C53.5536757,42.8145798 53.9843222,43.8692632 54.8456281,44.607033 C55.7069341,45.3448029 56.6962572,45.7136823 57.8136271,45.7136823 C58.930997,45.7136823 59.9203201,45.3396074 60.7816261,44.5914464 C61.6429321,43.8432854 62.0735786,42.7834066 62.0735786,41.4117781 L62.0735786,41.4117781 Z M51.4236999,35.3040539 C52.9257752,33.6609573 54.8474652,32.8547296 57.0092358,32.8547296 C59.1710064,32.8547296 60.9165742,33.3854085 62.0735781,34.9978884 L62.0735781,32.8547296 L66.9420941,32.8547296 L66.9420941,49.9999999 L62.0735781,49.9999999 L62.0735781,47.24451 C60.8150826,49.0406901 59.1202607,49.9999999 57.0092359,49.9999999 C54.8982111,49.9999999 53.0916881,49.1835666 51.5896128,47.5506755 C50.0875375,45.9177845 49.3365111,43.8256742 49.3365111,41.274282 C49.3365111,38.7228897 49.9216245,36.9471506 51.4236999,35.3040539 Z M37.1652216,41.4117781 C37.1652216,40.0401497 36.7345751,38.9854663 35.8732691,38.2476964 C35.0119632,37.5099266 34.0226401,37.1410472 32.9052702,37.1410472 C31.7879003,37.1410472 30.7985772,37.5151221 29.9372712,38.2632831 C29.0759652,39.011444 28.6453187,40.0713229 28.6453187,41.4429514 C28.6453187,42.8145798 29.0759652,43.8692632 29.9372712,44.607033 C30.7985772,45.3448029 31.7879003,45.7136823 32.9052702,45.7136823 C34.0226401,45.7136823 35.0119632,45.3396074 35.8732691,44.5914464 C36.7345751,43.8432854 37.1652216,42.7834066 37.1652216,41.4117781 L37.1652216,41.4117781 Z M26.472556,35.3040539 C27.9746313,33.6609573 29.8963214,32.8547296 32.058092,32.8547296 C34.2198625,32.8547296 35.9654303,33.3854085 37.1224343,34.9978884 L37.1224343,27.3437499 L41.9909502,27.3437499 L41.9909502,49.9999999 L37.1224343,49.9999999 L37.1224343,47.24451 C35.8639387,49.0406901 34.1691168,49.9999999 32.058092,49.9999999 C29.9470672,49.9999999 28.1405443,49.1835666 26.6384689,47.5506755 C25.1363936,45.9177845 24.3853672,43.8256742 24.3853672,41.274282 C24.3853672,38.7228897 24.9704807,36.9471506 26.472556,35.3040539 Z M45.6423372,32.2423986 C44.9607416,32.2423986 44.3846396,32.0068108 43.914014,31.5356284 C43.4433885,31.0644459 43.2080792,30.4836003 43.2080792,29.7930742 C43.2080792,29.1025482 43.4433885,28.5217026 43.914014,28.0505201 C44.3846396,27.5793376 44.9607416,27.3437499 45.6423372,27.3437499 C46.3239328,27.3437499 46.9000348,27.5793376 47.3706604,28.0505201 C47.8412859,28.5217026 48.0765952,29.1025482 48.0765952,29.7930742 C48.0765952,30.4836003 47.8412859,31.0644459 47.3706604,31.5356284 C46.9000348,32.0068108 46.3239328,32.2423986 45.6423372,32.2423986 L45.6423372,32.2423986 Z M43.2080792,49.9999999 L43.2080792,32.8547295 L48.0765954,32.8547295 L48.0765954,49.9999999 L43.2080792,49.9999999 Z M82.156207,27.3437499 L87.0247229,27.3437499 L87.0247229,49.9999999 L82.156207,49.9999999 L73.1650024,36.2225507 L73.1650024,49.9999994 L68.1592236,49.9999994 L68.1592236,27.3437499 L73.0277395,27.3437499 L82.156207,42.0396958 L82.156207,27.3437499 Z M88.2418519,49.9999999 L88.2418519,27.3437499 L93.1103679,27.3437499 L93.1103679,49.9999999 L88.2418519,49.9999999 Z M97.5409254,30.5465485 C99.7187215,28.4113388 102.381011,27.3437499 105.527875,27.3437499 C107.966173,27.3437499 110.133516,27.9958732 112.02997,29.3001392 C113.926424,30.6044052 115.249754,32.4135213 116,34.7275417 L109.622945,34.7275417 C108.789338,33.1077274 107.455589,32.2978324 105.621655,32.2978324 C103.787721,32.2978324 102.344562,32.8763288 101.292134,34.033339 C100.239707,35.1903492 99.7135006,36.7365124 99.7135006,38.6718749 C99.7135006,40.6072374 100.239707,42.1534005 101.292134,43.3104107 C102.344562,44.4674209 103.787721,45.0459173 105.621655,45.0459173 C107.455589,45.0459173 108.789338,44.2360224 109.622945,42.6162081 L116,42.6162081 C115.249754,44.9302285 113.926424,46.7393445 112.02997,48.0436106 C110.133516,49.3478766 107.966173,49.9999999 105.527875,49.9999999 C102.381011,49.9999999 99.7187215,48.932411 97.5409254,46.7972013 C95.3631292,44.6619916 94.2742475,41.9535765 94.2742475,38.6718749 C94.2742475,35.3901732 95.3631292,32.6817582 97.5409254,30.5465485 Z M77.9799331,12.8354028 C77.9799331,5.74857872 83.6699974,1.42108547e-14 90.693441,1.42108547e-14 C92.1244205,1.42108547e-14 93.2844586,1.16800714 93.2844586,2.60881696 C93.2844586,4.04962678 92.1244205,5.21763391 90.693441,5.21763391 C86.5358906,5.21763391 83.1619685,8.62625211 83.1619685,12.8354028 C83.1619685,17.0445536 86.5358906,20.4531718 90.693441,20.4531718 C94.8509913,20.4531718 98.2249134,17.0445536 98.2249134,12.8354028 C98.2249134,11.394593 99.3849516,10.2265859 100.815931,10.2265859 C102.246911,10.2265859 103.406949,11.394593 103.406949,12.8354028 C103.406949,19.922227 97.7168845,25.6708057 90.693441,25.6708057 C83.6699974,25.6708057 77.9799331,19.922227 77.9799331,12.8354028 Z M90.693441,18.0817525 C87.8254553,18.0817525 85.5004936,15.7328817 85.5004936,12.8354028 C85.5004936,9.93792395 87.8254553,7.58905321 90.693441,7.58905321 C93.5614266,7.58905321 95.8863883,9.93792395 95.8863883,12.8354028 C95.8863883,15.7328817 93.5614266,18.0817525 90.693441,18.0817525 Z" id="INIC-LWS-[-20--1714--4921--70]"></path>
        </g>
    </g>
</svg>