<?xml version="1.0" encoding="UTF-8"?>
<svg width="28px" height="28px" viewBox="0 0 28 28" version="1.1" xmlns="http://www.w3.org/2000/svg" xmlns:xlink="http://www.w3.org/1999/xlink">
    <!-- Generator: Sketch 51.3 (57544) - http://www.bohemiancoding.com/sketch -->
    <title>responsive logo icon</title>
    <desc>Created with Sketch.</desc>
    <defs></defs>
    <g id="Symbols" stroke="none" stroke-width="1" fill="none" fill-rule="evenodd">
        <g id="responsive-header" transform="translate(-56.000000, -60.000000)" fill="#252B33">
            <g id="Group-11">
                <g id="Group" transform="translate(16.000000, 60.000000)">
                    <g id="responsive-logo-icon" transform="translate(40.000000, 0.000000)">
                        <path d="M-1.77635684e-15,14 C-1.77635684e-15,6.27016566 6.26584744,-1.10134124e-13 14,-1.10134124e-13 C15.5757818,-1.10134124e-13 16.8532053,1.27398416 16.8532053,2.84552327 C16.8532053,4.41706237 15.5757818,5.69104653 14,5.69104653 C9.42174307,5.69104653 5.70641053,9.40893956 5.70641053,14 C5.70641053,18.5910604 9.42174307,22.3089535 14,22.3089535 C18.5782569,22.3089535 22.2935895,18.5910604 22.2935895,14 C22.2935895,12.4284609 23.571013,11.1544767 25.1467947,11.1544767 C26.7225765,11.1544767 28,12.4284609 28,14 C28,21.7298343 21.7341526,28 14,28 C6.26584744,28 -1.77635684e-15,21.7298343 -1.77635684e-15,14 Z M14,19.7223677 C10.8418001,19.7223677 8.28157323,17.1603764 8.28157323,14 C8.28157323,10.8396236 10.8418001,8.27763229 14,8.27763229 C17.1581999,8.27763229 19.7184268,10.8396236 19.7184268,14 C19.7184268,17.1603764 17.1581999,19.7223677 14,19.7223677 Z" id="Combined-Shape-Copy"></path>
                    </g>
                </g>
            </g>
        </g>
    </g>
</svg>