<?xml version="1.0" encoding="UTF-8"?>
<svg width="294px" height="286px" viewBox="0 0 294 286" version="1.1" xmlns="http://www.w3.org/2000/svg" xmlns:xlink="http://www.w3.org/1999/xlink">
    <!-- Generator: Sketch 61.2 (89653) - https://sketch.com -->
    <title>img-new-services-iot</title>
    <desc>Created with Sketch.</desc>
    <g id="Page-1" stroke="none" stroke-width="1" fill="none" fill-rule="evenodd">
        <g id="Home-page-5-Copy-2" transform="translate(-883.000000, -116.000000)">
            <g id="img-new-services-iot" transform="translate(883.000000, 108.000000)">
                <circle id="Oval" fill-opacity="0.24" fill="#FFFFFF" cx="143" cy="154" r="126"></circle>
                <g id="iot">
                    <path d="M52.1568021,240.57631 C45.0720018,254.73871 44.5500018,263.55691 48.1221019,266.514311 C57.6486023,274.401911 106.222504,231.456609 156.613506,170.593207 C207.004508,109.729804 240.13801,54.0000021 230.607009,46.1097018 C227.409309,43.4619017 219.811509,46.5426018 209.222108,54.1053021" id="Path_143" stroke-opacity="0.2" stroke="#FFFFFF" stroke-width="1.80000007" stroke-linecap="round" stroke-linejoin="round"></path>
                    <path d="M56.0097022,72.7443029 C43.6410017,67.5585027 35.3097014,66.1743026 32.7483013,69.5340028 C25.253101,79.3710032 70.1280028,126.167405 132.980405,174.060007 C195.832808,221.952609 252.86041,252.79471 260.35561,242.95681 C263.03761,239.43601 258.07051,230.728509 248.91571,219.386709" id="Path_144" stroke-opacity="0.2" stroke="#FFFFFF" stroke-width="1.80000007" stroke-linecap="round" stroke-linejoin="round"></path>
                    <path d="M25.828201,134.431205 C12.5640005,136.411205 4.71960019,139.545006 4.27230017,143.744406 C2.96280012,156.042006 65.5956026,172.800007 144.167406,181.170007 C222.739209,189.540008 287.497811,186.355807 288.807311,174.060007 C289.276211,169.659907 278.976611,164.017807 265.268711,159.064206" id="Path_145" stroke-opacity="0.2" stroke="#FFFFFF" stroke-width="1.80000007" stroke-linecap="round" stroke-linejoin="round"></path>
                    <path d="M27.6318011,192.581108 C12.3714005,182.620807 3.45150014,170.589607 3.45150014,157.634106 C3.45150014,144.990006 11.9466005,133.227905 26.5401011,123.410705 C51.5961021,106.554604 94.6314038,95.4333038 143.514906,95.4333038 C192.872708,95.4333038 236.266209,106.773304 261.21331,123.901205 C275.364011,133.621205 283.578311,145.200606 283.578311,157.634106 C283.578311,170.067607 276.234311,179.498707 262.06021,189.224108" id="Path_146" stroke-opacity="0.2" stroke="#FFFFFF" stroke-width="1.74870007" stroke-linecap="round" stroke-linejoin="round"></path>
                    <path d="M70.7976028,257.58451 C53.3043021,259.01011 41.9913017,254.94841 34.1082014,245.08621 C12.6594005,218.251809 44.2548018,157.345206 104.678104,109.047604 C165.101407,60.7500024 231.473709,43.3476017 252.92251,70.1820028 C260.35561,79.4826032 261.41851,92.8746037 257.11741,108.416704" id="Path_147" stroke-opacity="0.2" stroke="#FFFFFF" stroke-width="1.74870007" stroke-linecap="round" stroke-linejoin="round"></path>
                    <path d="M123.388205,278.702111 C129.647705,288.090011 136.160105,292.539612 143.671506,292.539612 C169.039807,292.539612 189.605708,232.144209 189.605708,157.641306 C189.605708,83.1384033 169.038007,22.7430009 143.671506,22.7430009 C136.651505,22.7430009 129.997805,27.3681011 124.051505,35.6391014" id="Path_148" stroke-opacity="0.2" stroke="#FFFFFF" stroke-width="1.47510006" stroke-linecap="round" stroke-linejoin="round"></path>
                    <g id="Group_72" transform="translate(87.948003, 202.680008)">
                        <circle id="Ellipse_23" fill="#FFFFFF" fill-rule="nonzero" cx="20.9961008" cy="20.9016008" r="20.1879008"></circle>
                        <g id="Group_71" transform="translate(9.900000, 7.200000)">
                            <rect id="Rectangle_54" fill="#2F5971" fill-rule="nonzero" x="6.09120024" y="21.4479009" width="10.0080004" height="2.34270009"></rect>
                            <rect id="Rectangle_55" fill="#2F5971" fill-rule="nonzero" transform="translate(11.095200, 4.473450) rotate(180.000000) translate(-11.095200, -4.473450) " x="6.09120024" y="3.30210013" width="10.0080004" height="2.34270009"></rect>
                            <g id="Group_66" transform="translate(5.400000, 0.000000)" fill="#2F5971" fill-rule="nonzero">
                                <rect id="Rectangle_56" transform="translate(5.695200, 1.293750) rotate(180.000000) translate(-5.695200, -1.293750) " x="0.691200027" y="0.338400013" width="10.0080004" height="1.91070008"></rect>
                                <rect id="Rectangle_57" opacity="0.35" style="mix-blend-mode: multiply;" x="0.691200027" y="0.338400013" width="10.0080004" height="1"></rect>
                            </g>
                            <rect id="Rectangle_58" fill="#2F5971" fill-rule="nonzero" x="6.09120024" y="21.7548009" width="10.0080004" height="2.34270009"></rect>
                            <g id="Group_67" transform="translate(5.400000, 24.300001)" fill="#2F5971" fill-rule="nonzero">
                                <rect id="Rectangle_59" x="0.691200027" y="0.851400034" width="10.0080004" height="1.91070008"></rect>
                                <rect id="Rectangle_60" opacity="0.35" style="mix-blend-mode: multiply;" x="0.691200027" y="2.26350009" width="10.0080004" height="1"></rect>
                            </g>
                            <g id="Group_70" transform="translate(0.000000, 2.700000)">
                                <circle id="Ellipse_24" fill="#A9DAE8" fill-rule="nonzero" transform="translate(11.095425, 10.795855) rotate(-22.608000) translate(-11.095425, -10.795855) " cx="11.0954248" cy="10.7958549" r="6.67800027"></circle>
                                <circle id="Ellipse_25" transform="translate(11.095519, 10.795877) rotate(-76.773000) translate(-11.095519, -10.795877) " cx="11.0955195" cy="10.7958767" r="8.58420034"></circle>
                                <g id="Group_69" opacity="0.8" style="mix-blend-mode: overlay;" transform="translate(6.300000, 8.100000)">
                                    <g id="Group_68">
                                        <path d="M4.80690019,1.27440005 C3.42153835,1.26037006 2.097889,1.84654356 1.17720005,2.88180011 L1.82700007,3.46320014 C2.57995389,2.61513282 3.66359441,2.13514908 4.79761707,2.14740599 C5.93163973,2.15966289 7.00465265,2.66295648 7.73910031,3.52710014 L8.40150033,2.96010012 C7.50318514,1.90516685 6.19239513,1.29046738 4.80690019,1.27440005 L4.80690019,1.27440005 Z" id="Path_149"></path>
                                        <path d="M4.78800019,3.01860012 C3.9054365,3.00950054 3.0621774,3.38304233 2.4759001,4.04280016 L3.08160012,4.58280018 C3.51219597,4.0983073 4.13160945,3.82417569 4.77975762,3.83125267 C5.42790579,3.83832965 6.04118594,4.12592078 6.46110026,4.61970018 L7.07850028,4.09140016 C6.50623607,3.41916881 5.67077733,3.02786554 4.78800019,3.01860012 L4.78800019,3.01860012 Z" id="Path_150"></path>
                                        <path d="M4.77000019,4.70250019 C4.3736154,4.69970721 3.99545666,4.86876255 3.73320015,5.16600021 L4.75560019,6.07950024 L5.79690023,5.18850021 C5.54108458,4.88549529 5.16651109,4.70822125 4.77000019,4.70250019 Z" id="Path_151"></path>
                                        <path d="M4.77000019,4.70250019 C5.16651109,4.70822125 5.54108458,4.88549529 5.79690023,5.18850021 L6.46110026,4.62060018 C6.04118594,4.12682078 5.42790579,3.83922965 4.77975762,3.83215267 C4.13160945,3.82507569 3.51219597,4.0992073 3.08160012,4.58370018 L3.73320015,5.16600021 C3.99545666,4.86876255 4.3736154,4.69970721 4.77000019,4.70250019 L4.77000019,4.70250019 Z" id="Path_152" fill="#FFFFFF" fill-rule="nonzero"></path>
                                        <path d="M4.78800019,3.01860012 C5.67092142,3.02809081 6.50640404,3.41973354 7.07850028,4.09230016 L7.73910031,3.52710014 C7.00465265,2.66295648 5.93163973,2.15966289 4.79761707,2.14740599 C3.66359441,2.13514908 2.57995389,2.61513282 1.82700007,3.46320014 L2.4759001,4.04280016 C3.0621774,3.38304233 3.9054365,3.00950054 4.78800019,3.01860012 Z" id="Path_153" fill="#FFFFFF" fill-rule="nonzero"></path>
                                        <path d="M4.80690019,1.27440005 C6.19239513,1.29046738 7.50318514,1.90516685 8.40150033,2.96010012 L9.06210036,2.3949001 C8.00155097,1.14830402 6.45276355,0.422558043 4.81616073,0.405296121 C3.1795579,0.388034199 1.61580726,1.08095096 0.529200021,2.30490009 L1.17720005,2.88450011 C2.09739382,1.84824229 3.42111206,1.26105361 4.80690019,1.27440005 L4.80690019,1.27440005 Z" id="Path_154" fill="#FFFFFF" fill-rule="nonzero"></path>
                                    </g>
                                </g>
                            </g>
                            <path d="M16.7283007,7.04610028 L5.35050021,19.9035008 C7.64725358,21.9359493 10.8538396,22.5887057 13.7623682,21.6158831 C16.6708969,20.6430605 18.8394935,18.1924537 19.4512686,15.1871827 C20.0630438,12.1819116 19.0250542,9.07854853 16.7283007,7.04610028 Z" id="Path_155" fill="#FFFFFF" fill-rule="nonzero" opacity="0.25" style="mix-blend-mode: overlay;"></path>
                        </g>
                    </g>
                    <g id="Group_75" transform="translate(252.648010, 115.380005)">
                        <circle id="Ellipse_26" fill="#FFFFFF" fill-rule="nonzero" cx="20.9601008" cy="20.5470008" r="20.1879008"></circle>
                        <g id="Group_74" transform="translate(12.600001, 7.200000)">
                            <g id="Group_73" fill-rule="nonzero">
                                <path d="M16.5357007,8.77950035 C16.5357007,4.26424097 12.8753597,0.603900024 8.36010033,0.603900024 C3.84484095,0.603900024 0.184500007,4.26424097 0.184500007,8.77950035 C0.184500007,11.5056005 3.16350013,15.9795006 5.52600022,19.1061008 L5.52600022,22.0905009 L11.2311004,22.0905009 L11.2311004,19.1061008 C11.2311004,19.1061008 16.5357007,12.3876005 16.5357007,8.77950035 Z" id="Path_156" fill="#FBBF31"></path>
                                <path d="M8.36010033,0.603900024 L8.36010033,22.0905009 L11.2311004,22.0905009 L11.2311004,19.1061008 C11.2311004,19.1061008 16.5357007,12.3876005 16.5357007,8.77950035 C16.5357007,4.26424097 12.8753597,0.603900024 8.36010033,0.603900024 Z" id="Path_157" fill="#FFFFFF" opacity="0.25" style="mix-blend-mode: overlay;"></path>
                            </g>
                            <polygon id="Path_158" fill="#FBBF31" fill-rule="nonzero" points="10.2825004 26.090101 6.43680026 26.090101 5.50710022 23.9031009 11.2131004 23.9031009"></polygon>
                            <path d="M8.78850035,22.0770009 L10.6254004,13.3470005 C10.7681886,12.6646384 10.5959659,11.954259 10.1565375,11.4130481 C9.71710921,10.8718372 9.05724187,10.5573938 8.36010033,10.5570004 L8.36010033,10.5570004 C7.66284163,10.5570004 7.00275592,10.871414 6.56325381,11.4127158 C6.1237517,11.9540176 5.95166159,12.6645923 6.09480024,13.3470005 L7.93440032,22.0878009 L8.77230035,22.0878009" id="Path_159"></path>
                            <path d="M8.88660035,22.2732009 L11.1483004,11.5317005 C11.3248414,10.6912003 11.1129837,9.81590393 10.5716287,9.14916409 C10.0302737,8.48242424 9.21714098,8.09532919 8.35830033,8.09549983 L8.35830033,8.09549983 C7.49934239,8.09499481 6.68599071,8.48199994 6.14456165,9.14883095 C5.6031326,9.81566195 5.39140788,10.6911541 5.56830022,11.5317005 L7.83270031,22.2894009 L8.86410035,22.2894009" id="Path_160"></path>
                            <rect id="Rectangle_61" fill="#FBBF31" fill-rule="nonzero" x="5.50710022" y="22.6683009" width="5.70600023" height="1"></rect>
                        </g>
                    </g>
                    <g id="Group_84" transform="translate(204.948008, 198.180008)">
                        <circle id="Ellipse_27" fill="#FFFFFF" fill-rule="nonzero" transform="translate(23.235768, 23.324127) rotate(-81.191000) translate(-23.235768, -23.324127) " cx="23.2357678" cy="23.3241271" r="20.1879008"></circle>
                        <g id="Group_83" transform="translate(10.800000, 9.000000)">
                            <g id="Group_79" transform="translate(0.000000, 17.100001)" fill-rule="nonzero">
                                <g id="Group_78">
                                    <g id="Group_77">
                                        <path d="M25.360201,6.21000025 L1.31040005,6.21000025 L0.639000025,5.53860022 L0.639000025,1.20600005 C0.901800036,0.944100038 1.04850004,0.796500032 1.31040005,0.534600021 L25.360201,0.534600021 C25.622101,0.796500032 25.768801,0.944100038 26.031601,1.20600005 L26.031601,5.54040022 L25.360201,6.21000025 Z" id="Path_161" fill="#A9DAE8"></path>
                                        <g id="Group_76" transform="translate(3.600000, 1.800000)">
                                            <path d="M1.39410006,1.57320006 C1.39410006,1.84730414 1.22898374,2.09441816 0.975744601,2.19931325 C0.722505457,2.30420833 0.431014593,2.2462272 0.237193744,2.05240635 C0.0433728942,1.8585855 -0.0146082435,1.56709463 0.0902868444,1.31385549 C0.195181932,1.06061635 0.442295954,0.895500036 0.716400028,0.895500036 C1.09068342,0.895500036 1.39410006,1.19891667 1.39410006,1.57320006 Z" id="Path_162" fill="#FFFFFF"></path>
                                            <path d="M5.0013002,1.57320006 C5.0013002,1.84738599 4.8360861,2.09455675 4.58273644,2.19939889 C4.32938679,2.30424102 4.03782544,2.24609474 3.84407558,2.05208723 C3.65032572,1.85807973 3.59256695,1.56644137 3.69774567,1.31323126 C3.80292439,1.06002116 4.05031449,0.895135911 4.32450017,0.895499434 C4.69843204,0.895996625 5.0013002,1.19926786 5.0013002,1.57320006 L5.0013002,1.57320006 Z" id="Path_163" fill="#FFFFFF"></path>
                                            <path d="M8.60850034,1.57320006 C8.60850034,1.84738599 8.44328624,2.09455675 8.18993659,2.19939889 C7.93658693,2.30424102 7.64502559,2.24609474 7.45127573,2.05208723 C7.25752587,1.85807973 7.19976709,1.56644137 7.30494581,1.31323126 C7.41012453,1.06002116 7.65751463,0.895135911 7.93170032,0.895499434 C8.30563218,0.895996625 8.60850034,1.19926786 8.60850034,1.57320006 Z" id="Path_164" fill="#FFFFFF"></path>
                                            <path d="M12.2166005,1.57320006 C12.2166005,1.94748345 11.9131838,2.25090009 11.5389005,2.25090009 C11.1646171,2.25090009 10.8612004,1.94748345 10.8612004,1.57320006 C10.8612004,1.19891667 11.1646171,0.895500036 11.5389005,0.895500036 C11.9131838,0.895500036 12.2166005,1.19891667 12.2166005,1.57320006 L12.2166005,1.57320006 Z" id="Path_165" fill="#FFFFFF"></path>
                                            <path d="M15.8238006,1.57320006 C15.8238006,1.84730414 15.6586843,2.09441816 15.4054452,2.19931325 C15.152206,2.30420833 14.8607152,2.2462272 14.6668943,2.05240635 C14.4730735,1.8585855 14.4150923,1.56709463 14.5199874,1.31385549 C14.6248825,1.06061635 14.8719965,0.895500036 15.1461006,0.895500036 C15.520384,0.895500036 15.8238006,1.19891667 15.8238006,1.57320006 Z" id="Path_166" fill="#FFFFFF"></path>
                                            <path d="M19.4310008,1.57320006 C19.4310008,1.84738599 19.2657867,2.09455675 19.012437,2.19939889 C18.7590874,2.30424102 18.467526,2.24609474 18.2737762,2.05208723 C18.0800263,1.85807973 18.0222675,1.56644137 18.1274462,1.31323126 C18.232625,1.06002116 18.4800151,0.895135911 18.7542007,0.895499434 C19.1281326,0.895996625 19.4310008,1.19926786 19.4310008,1.57320006 Z" id="Path_167" fill="#FBBF31"></path>
                                        </g>
                                        <polygon id="Path_168" fill="#A9DAE8" opacity="0.75" style="mix-blend-mode: multiply;" points="0.639000025 5.54040022 1.31040005 6.21180025 25.360201 6.21180025 26.031601 5.54040022"></polygon>
                                    </g>
                                    <path d="M26.031601,1.20600005 C25.768801,0.944100038 25.622101,0.796500032 25.360201,0.534600021 L1.31040005,0.534600021 C1.04850004,0.796500032 0.901800036,0.944100038 0.639000025,1.20600005 L26.031601,1.20600005 Z" id="Path_169" fill="#A9DAE8" opacity="0.75" style="mix-blend-mode: multiply;"></path>
                                </g>
                                <polygon id="Path_170" fill="#FFFFFF" opacity="0.25" style="mix-blend-mode: overlay;" points="1.31040005 6.21000025 25.360201 6.21000025 26.031601 5.53860022 26.031601 1.20600005 25.661701 0.836100033 1.05660004 5.95710024"></polygon>
                            </g>
                            <rect id="Rectangle_62" fill="#A9DAE8" fill-rule="nonzero" x="3.53340014" y="12.7908005" width="2.70540011" height="4.84380019"></rect>
                            <polygon id="Path_171" fill="#A9DAE8" fill-rule="nonzero" points="5.49630022 12.7908005 4.27590017 12.7908005 4.75650019 7.94700032 5.0166002 7.94700032"></polygon>
                            <g id="Group_82" transform="translate(3.600000, 0.000000)">
                                <g id="Group_80">
                                    <path d="M5.24250021,2.85570011 C3.99195454,1.85447674 2.36925277,1.44354983 0.792900032,1.72890007 L0.972900039,2.71890011 C2.26229675,2.48663309 3.58909034,2.82425133 4.61064497,3.64456712 C5.63219959,4.4648829 6.24835763,5.68746893 6.30000025,6.99660028 L7.30710029,6.95340028 C7.24330388,5.35334819 6.49044888,3.85912464 5.24250021,2.85570011 Z" id="Path_172"></path>
                                    <path d="M3.98160016,4.42890018 C3.18534331,3.78990285 2.15126757,3.52728044 1.14660005,3.70890015 L1.31130005,4.63410018 C2.0486334,4.50039491 2.80773189,4.69268145 3.39249477,5.1612857 C3.97725765,5.62988995 4.33032958,6.32884979 4.36050017,7.07760028 L5.29920021,7.03800028 C5.25775208,6.01873926 4.777264,5.06728096 3.98160016,4.42890018 L3.98160016,4.42890018 Z" id="Path_173"></path>
                                    <path d="M2.76300011,5.94810024 C2.40408013,5.66299414 1.93935143,5.54714017 1.48860006,5.63040022 L1.76760007,7.19100029 L3.35070013,7.12260028 C3.33432919,6.66441455 3.11990259,6.23588972 2.76300011,5.94810024 L2.76300011,5.94810024 Z" id="Path_174"></path>
                                    <path d="M2.76300011,5.94810024 C3.11874165,6.2348713 3.33304376,6.66150644 3.35070013,7.11810028 L4.36050017,7.07490028 C4.33032958,6.32614979 3.97725765,5.62718995 3.39249477,5.1585857 C2.80773189,4.68998145 2.0486334,4.49769491 1.31130005,4.63140018 L1.49130006,5.62590022 C1.94183551,5.54470663 2.40547826,5.66217592 2.76300011,5.94810024 L2.76300011,5.94810024 Z" id="Path_175" fill="#A9DAE8" fill-rule="nonzero"></path>
                                    <path d="M3.98160016,4.42890018 C4.77749553,5.06748465 5.25800855,6.01932055 5.29920021,7.03890028 L6.30360025,6.99570028 C6.25172801,5.68556985 5.63448995,4.46225246 4.61150788,3.64210602 C3.58852582,2.82195958 2.26025685,2.48552268 0.970200039,2.71980011 L1.15020005,3.70980015 C2.15357272,3.52901827 3.18608751,3.79124946 3.98160016,4.42890018 Z" id="Path_176" fill="#A9DAE8" fill-rule="nonzero"></path>
                                    <path d="M5.24250021,2.85570011 C6.49247139,3.85809544 7.24737102,5.35246851 7.31250029,6.95340028 L8.31690033,6.91020027 C8.24181893,5.019204 7.35076299,3.25358968 5.87414229,2.06991092 C4.39752159,0.886232151 2.48032415,0.400713268 0.618300025,0.738900029 L0.798300032,1.72890007 C2.37290778,1.44517965 3.99329138,1.8560181 5.24250021,2.85570011 L5.24250021,2.85570011 Z" id="Path_177" fill="#A9DAE8" fill-rule="nonzero"></path>
                                </g>
                                <g id="Group_81" opacity="0.25" style="mix-blend-mode: overlay;" transform="translate(0.900000, 1.800000)" fill="#FFFFFF" fill-rule="nonzero">
                                    <path d="M4.34250017,1.05570004 L4.34250017,1.05570004 L3.71250015,1.84320007 L3.71250015,1.84320007 C4.73492595,2.66370246 5.35200764,3.88670585 5.40450021,5.19660021 L6.41160025,5.1534002 C6.34669306,3.55261513 5.59213423,2.05826701 4.34250017,1.05570004 Z" id="Path_178"></path>
                                    <path d="M3.08160012,2.6289001 L3.08160012,2.6289001 L2.4930001,3.36330013 L2.4930001,3.36330013 C3.07733003,3.83210507 3.43015824,4.53086904 3.46050014,5.27940021 L4.39920017,5.23980021 C4.35826509,4.21990179 3.87772712,3.26768822 3.08160012,2.6289001 L3.08160012,2.6289001 Z" id="Path_179"></path>
                                    <path d="M1.86300007,4.14810016 L1.86300007,4.14810016 L0.867600034,5.39100021 L0.867600034,5.39100021 L2.4507001,5.32260021 C2.43432916,4.86441448 2.21990256,4.43588965 1.86300007,4.14810016 L1.86300007,4.14810016 Z" id="Path_180"></path>
                                    <path d="M2.4930001,3.36330013 L2.4930001,3.36330013 L1.86300007,4.14810016 L1.86300007,4.14810016 C2.21874161,4.43487123 2.43304372,4.86150637 2.4507001,5.31810021 L3.46050014,5.27490021 C3.42887758,4.52796291 3.07617388,3.83108603 2.4930001,3.36330013 L2.4930001,3.36330013 Z" id="Path_181"></path>
                                    <path d="M3.71160015,1.84320007 L3.71160015,1.84320007 L3.08160012,2.6289001 L3.08160012,2.6289001 C3.87749549,3.26748458 4.35800852,4.21932048 4.39920017,5.23890021 L5.40360021,5.19570021 C5.35085106,3.88612453 4.73379431,2.6634988 3.71160015,1.84320007 Z" id="Path_182"></path>
                                    <path d="M4.9725002,0.270000011 L4.9725002,0.270000011 L4.34250017,1.05570004 L4.34250017,1.05570004 C5.59247135,2.05809537 6.34737099,3.55246844 6.41250025,5.1534002 L7.41690029,5.1102002 C7.34056561,3.21918106 6.44905272,1.45388051 4.9725002,0.270000011 L4.9725002,0.270000011 Z" id="Path_183"></path>
                                    <path d="M0.588600023,3.83040015 L0.867600034,5.39100021 L1.86300007,4.14810016 C1.50408009,3.86299407 1.0393514,3.74714009 0.588600023,3.83040015 Z" id="Path_184"></path>
                                </g>
                            </g>
                            <path d="M5.29830021,7.81200031 C5.29830021,8.03965209 5.11375198,8.22420033 4.88610019,8.22420033 C4.65844841,8.22420033 4.47390018,8.03965209 4.47390018,7.81200031 C4.47390018,7.58434853 4.65844841,7.39980029 4.88610019,7.39980029 C5.11354663,7.40029528 5.29780522,7.58455387 5.29830021,7.81200031 Z" id="Path_185" fill="#A9DAE8" fill-rule="nonzero"></path>
                            <polygon id="Path_186" fill="#FFFFFF" fill-rule="nonzero" opacity="0.25" style="mix-blend-mode: overlay;" points="3.53340014 17.6346007 6.23880025 12.7908005 6.23880025 17.6346007"></polygon>
                            <rect id="Rectangle_63" fill="#A9DAE8" fill-rule="nonzero" opacity="0.75" style="mix-blend-mode: multiply;" x="3.53340014" y="17.3349007" width="2.70540011" height="1"></rect>
                            <polygon id="Path_187" fill="#A9DAE8" fill-rule="nonzero" opacity="0.75" style="mix-blend-mode: multiply;" points="5.49630022 12.7908005 4.27590017 12.7908005 4.28940017 12.6522005 5.48280022 12.6522005"></polygon>
                        </g>
                    </g>
                    <g id="Group_89" transform="translate(15.048001, 176.580007)" fill-rule="nonzero">
                        <circle id="Ellipse_28" fill="#FFFFFF" transform="translate(29.281703, 29.287801) rotate(-45.000000) translate(-29.281703, -29.287801) " cx="29.2817031" cy="29.2878012" r="20.1879008"></circle>
                        <g id="Group_88" transform="translate(19.800001, 17.100001)">
                            <path d="M1.81440007,0.133200005 L17.1468007,0.133200005 C17.4384858,0.133200005 17.7182242,0.249071463 17.9244768,0.45532398 C18.1307293,0.661576497 18.2466007,0.941314942 18.2466007,1.23300005 L18.2466007,23.1444009 C18.2466007,23.436086 18.1307293,23.7158245 17.9244768,23.922077 C17.7182242,24.1283295 17.4384858,24.244201 17.1468007,24.244201 L1.81440007,24.244201 C1.52279766,24.244201 1.24315165,24.1283009 1.03704203,23.9220225 C0.830932403,23.715744 0.715261206,23.4360032 0.715499659,23.1444009 L0.715499659,1.23210005 C0.715499659,0.625194313 1.20749434,0.133200005 1.81440007,0.133200005 Z" id="Rectangle_64" fill="#FF9C00"></path>
                            <path d="M17.9739007,0.50760002 L0.990000039,23.8680009 C1.18168505,24.0857058 1.45054711,24.2202982 1.73970007,24.243301 L17.1585007,24.243301 C17.4475601,24.243301 17.7247805,24.1284725 17.9291764,23.9240766 C18.1335723,23.7196807 18.2484007,23.4424604 18.2484007,23.1534009 L18.2484007,1.15290005 C18.2284257,0.913939632 18.1321961,0.68772124 17.9739007,0.50760002 Z" id="Path_188" fill="#FFFFFF" opacity="0.35" style="mix-blend-mode: overlay;"></path>
                            <path d="M10.5156008,22.2975009 C10.5159644,22.7162829 10.2639283,23.0940145 9.87709366,23.2544436 C9.49025907,23.4148728 9.04486894,23.3263798 8.74874522,23.030256 C8.4526215,22.7341323 8.3641285,22.2887422 8.52455764,21.9019076 C8.68498677,21.515073 9.06271836,21.2630368 9.48150038,21.2634005 C10.0526181,21.2634005 10.5156008,21.7263832 10.5156008,22.2975009 Z" id="Path_189" fill="#808080"></path>
                            <g id="Group_87" transform="translate(2.700000, 1.800000)">
                                <rect id="Rectangle_65" fill="#FFFFFF" x="0.0909000036" y="0.0873000035" width="13.3803005" height="18.4023007"></rect>
                                <g id="Group_86" transform="translate(1.800000, 2.700000)" fill="#D6E0E3">
                                    <rect id="Rectangle_66" x="6.11370024" y="8.30610033" width="3.72330015" height="4.53510018"></rect>
                                    <g id="Group_85">
                                        <rect id="Rectangle_67" x="0.126000005" y="0.336600013" width="9.71100039" height="1"></rect>
                                        <rect id="Rectangle_68" x="0.126000005" y="1.66500007" width="9.71100039" height="1"></rect>
                                        <rect id="Rectangle_69" x="0.126000005" y="2.99250012" width="9.71100039" height="1"></rect>
                                        <rect id="Rectangle_70" x="0.126000005" y="4.32090017" width="9.71100039" height="1"></rect>
                                        <rect id="Rectangle_71" x="0.126000005" y="5.64930022" width="9.71100039" height="1"></rect>
                                        <rect id="Rectangle_72" x="0.126000005" y="6.97770028" width="9.71100039" height="1"></rect>
                                        <rect id="Rectangle_73" x="0.126000005" y="8.30610033" width="5.38830021" height="1"></rect>
                                        <rect id="Rectangle_74" x="0.126000005" y="9.63450038" width="5.38830021" height="1"></rect>
                                        <rect id="Rectangle_75" x="0.126000005" y="10.9629004" width="5.38830021" height="1"></rect>
                                        <rect id="Rectangle_76" x="0.126000005" y="12.2913005" width="5.38830021" height="1"></rect>
                                    </g>
                                </g>
                            </g>
                        </g>
                    </g>
                    <g id="Group_91" transform="translate(144.648006, 241.380010)" fill-rule="nonzero">
                        <circle id="Ellipse_29" fill="#FFFFFF" transform="translate(24.025478, 23.381072) rotate(-80.130000) translate(-24.025478, -23.381072) " cx="24.0254782" cy="23.3810718" r="20.1879008"></circle>
                        <g id="Group_90" transform="translate(9.900000, 16.200001)">
                            <path d="M0.166500007,10.8432004 C0.156600006,10.7847004 0.146700006,10.7271004 0.141300006,10.6632004 C0.06944345,9.88790087 0.373460783,9.12512022 0.95891494,8.61180143 C1.5443691,8.09848263 2.34034942,7.89679926 3.09960012,8.06940032 C3.5389516,6.76244741 4.48363449,5.6860138 5.72248926,5.08070852 C6.96134403,4.47540323 8.39107419,4.391697 9.69210039,4.84830019 C11.0968861,2.1329897 14.0328149,0.567553207 17.0702689,0.91426259 C20.1077228,1.26097197 22.6153547,3.44776226 23.3721009,6.40980025 C25.8535196,6.45645257 27.9001656,8.36722487 28.1169011,10.8396004 L0.166500007,10.8432004 Z" id="Path_190" fill="#FBBF31"></path>
                            <path d="M2.34000009,8.02260032 C2.59398065,7.99970741 2.84997945,8.01671326 3.09870012,8.07300032 C3.5380516,6.76604741 4.48273449,5.6896138 5.72158926,5.08430852 C6.96044403,4.47900323 8.39017419,4.395297 9.69120039,4.85190019 C10.7456017,2.81626327 12.6861319,1.38622385 14.9427006,0.981900039 L14.9427006,10.8396004 L0.166500007,10.8396004 C0.156600006,10.7811004 0.146700006,10.7235004 0.141300006,10.6596004 C0.0215421104,9.32465674 1.00527922,8.14481649 2.34000009,8.02260032 Z" id="Path_191" fill="#FFFFFF" opacity="0.25" style="mix-blend-mode: overlay;"></path>
                        </g>
                    </g>
                    <g id="Group_94" transform="translate(198.648008, 27.180001)" fill-rule="nonzero">
                        <circle id="Ellipse_30" fill="#FFFFFF" transform="translate(29.207903, 29.128501) rotate(-45.000000) translate(-29.207903, -29.128501) " cx="29.2079031" cy="29.1285012" r="20.1879008"></circle>
                        <g id="Group_93" transform="translate(18.900001, 17.100001)">
                            <rect id="Rectangle_77" fill="#2F5971" x="2.15370009" y="8.82000035" width="16.3080006" height="12.6414005"></rect>
                            <polygon id="Path_192" fill="#FFFFFF" opacity="0.25" style="mix-blend-mode: overlay;" points="2.15370009 21.4614009 18.4617007 8.82000035 18.4617007 21.4614009"></polygon>
                            <rect id="Rectangle_78" fill="#2AB0C3" opacity="0.56" style="mix-blend-mode: multiply;" x="2.15370009" y="8.82000035" width="16.3080006" height="1"></rect>
                            <g id="Group_92" fill="#2F5971">
                                <polygon id="Path_193" points="10.3077004 0.796500032 20.4363008 9.25650037 0.180000007 9.25650037"></polygon>
                                <rect id="Rectangle_79" x="14.6691006" y="2.83410011" width="1.97640008" height="3.25530013"></rect>
                            </g>
                            <rect id="Rectangle_80" fill="#FFFFFF" x="8.59950034" y="16.0641006" width="3.41730014" height="5.39730021"></rect>
                        </g>
                    </g>
                    <g id="Group_98" transform="translate(137.448005, 155.880006)" fill-rule="nonzero">
                        <circle id="Ellipse_31" fill="#FFFFFF" transform="translate(28.654187, 28.593640) rotate(-48.257000) translate(-28.654187, -28.593640) " cx="28.6541873" cy="28.5936395" r="20.1879008"></circle>
                        <g id="Group_97" transform="translate(19.800001, 17.100001)">
                            <g id="Group_96" fill="#FF9C00">
                                <g id="Group_95">
                                    <path d="M8.85420035,0.184500007 C4.09190399,0.184500007 0.231300009,4.04510399 0.231300009,8.80740035 C0.231300009,13.5702005 8.85420035,22.8033009 8.85420035,22.8033009 C8.85420035,22.8033009 17.4771007,13.5702005 17.4771007,8.80740035 C17.4771007,4.04510399 13.6164967,0.184500007 8.85420035,0.184500007 Z M8.85420035,13.7340005 C6.13404563,13.7335035 3.92923456,11.5281552 3.92940025,8.8080004 C3.92956593,6.08784564 6.13464564,3.88276593 8.85480041,3.88260025 C11.5749552,3.88243456 13.7803035,6.08724563 13.7808005,8.80740035 C13.7808005,11.5282865 11.5750865,13.7340005 8.85420035,13.7340005 L8.85420035,13.7340005 Z" id="Path_194"></path>
                                </g>
                            </g>
                            <path d="M8.85420035,0.184500007 L8.85420035,3.88170015 C11.574838,3.88170015 13.7803505,6.08721272 13.7803505,8.80785035 C13.7803505,11.528488 11.574838,13.7340005 8.85420035,13.7340005 L8.85420035,22.8033009 C8.85420035,22.8033009 17.4771007,13.5702005 17.4771007,8.80740035 C17.4771007,6.52046499 16.5686192,4.32719655 14.9515117,2.71008904 C13.3344042,1.09298154 11.1411357,0.184500007 8.85420035,0.184500007 Z" id="Path_195" fill="#FFFFFF" opacity="0.25" style="mix-blend-mode: overlay;"></path>
                        </g>
                    </g>
                    <g id="Group_103" transform="translate(160.848006, 100.080004)">
                        <circle id="Ellipse_32" fill="#FFFFFF" fill-rule="nonzero" transform="translate(28.775689, 28.581337) rotate(-51.492217) translate(-28.775689, -28.581337) " cx="28.7756885" cy="28.5813371" r="20.2001915"></circle>
                        <g id="Group_102" transform="translate(16.200001, 15.300001)">
                            <g id="Group_101" transform="translate(15.300001, 0.000000)">
                                <g id="Group_99">
                                    <path d="M7.78860031,6.59430026 C7.11422506,4.56976178 5.59654985,2.93622598 3.62700014,2.11500008 L3.10770012,3.35340013 C4.72029931,4.02413932 5.96286389,5.36111679 6.51392204,7.01843454 C7.0649802,8.67575228 6.87039186,10.4905831 5.98050024,11.9934005 L7.13790028,12.6738005 C8.22354198,10.8366799 8.46084326,8.61957049 7.78860031,6.59430026 Z" id="Path_196"></path>
                                    <path d="M5.24070021,7.4412003 C4.81120712,6.15123024 3.84423112,5.11040169 2.5893001,4.58730018 L2.10420008,5.74200023 C3.02567194,6.12563113 3.73567596,6.88976384 4.050694,7.83688933 C4.36571205,8.78401482 4.25482711,9.82117875 3.74670015,10.6803004 L4.82670019,11.3148004 C5.51876558,10.1443544 5.66977083,8.73147041 5.24070021,7.4412003 Z" id="Path_197"></path>
                                    <path d="M2.77920011,8.26020033 C2.58448151,7.68133244 2.14854844,7.21519919 1.58400006,6.98220028 L0.76590003,8.92890035 L2.5866001,9.9990004 C2.89965417,9.4746671 2.96991671,8.84033431 2.77920011,8.26020033 Z" id="Path_198"></path>
                                    <path d="M2.77920011,8.26020033 C2.96991671,8.84033431 2.89965417,9.4746671 2.5866001,9.9990004 L3.74670015,10.6803004 C4.25482711,9.82117875 4.36571205,8.78401482 4.050694,7.83688933 C3.73567596,6.88976384 3.02567194,6.12563113 2.10420008,5.74200023 L1.58400006,6.98220028 C2.14854844,7.21519919 2.58448151,7.68133244 2.77920011,8.26020033 L2.77920011,8.26020033 Z" id="Path_199" fill="#A9DAE8" fill-rule="nonzero"></path>
                                    <path d="M5.24070021,7.4412003 C5.66840091,8.7305176 5.51709298,10.1418497 4.82580019,11.3112004 L5.98050024,11.9889005 C6.87039186,10.4860831 7.0649802,8.67125228 6.51392204,7.01393453 C5.96286389,5.35661679 4.72029931,4.01963932 3.10770012,3.34890013 L2.5893001,4.58280018 C3.84518906,5.10689092 4.81231989,6.14952756 5.24070021,7.4412003 Z" id="Path_200" fill="#A9DAE8" fill-rule="nonzero"></path>
                                    <path d="M7.78860031,6.59430026 C8.46056854,8.61930011 8.22327383,10.83602 7.13790028,12.6729005 L8.29260033,13.3506005 C9.57614235,11.1812558 9.85643065,8.5620799 9.06099723,6.17025579 C8.26556381,3.77843169 6.47250043,1.84877694 4.14540016,0.880200035 L3.62700014,2.11500008 C5.59654985,2.93622598 7.11422506,4.56976178 7.78860031,6.59430026 Z" id="Path_201" fill="#A9DAE8" fill-rule="nonzero"></path>
                                </g>
                                <g id="Group_100" opacity="0.25" style="mix-blend-mode: overlay;" transform="translate(0.000000, 5.400000)" fill="#FFFFFF" fill-rule="nonzero">
                                    <path d="M7.78860031,1.19430005 L7.78860031,1.19430005 L6.51330026,1.61820006 L6.51330026,1.61820006 C7.06313472,3.27535864 6.8688334,5.08938461 5.98050024,6.59250026 L7.13790028,7.27290029 C8.22327383,5.43601979 8.46056854,3.2192999 7.78860031,1.19430005 L7.78860031,1.19430005 Z" id="Path_202"></path>
                                    <path d="M5.24070021,2.04120008 L5.24070021,2.04120008 L4.05090016,2.4372001 L4.05090016,2.4372001 C4.36551982,3.38428761 4.25457275,4.42121598 3.74670015,5.28030021 L4.82670019,5.91480024 C5.51876558,4.74435414 5.66977083,3.3314702 5.24070021,2.04120008 Z" id="Path_203"></path>
                                    <path d="M2.77920011,2.86020011 L2.77920011,2.86020011 L0.76590003,3.52890014 L0.76590003,3.52890014 L2.5866001,4.59900018 C2.89965417,4.07466688 2.96991671,3.4403341 2.77920011,2.86020011 L2.77920011,2.86020011 Z" id="Path_204"></path>
                                    <path d="M4.05000016,2.4372001 L4.05000016,2.4372001 L2.77830011,2.86020011 L2.77830011,2.86020011 C2.96901671,3.4403341 2.89875417,4.07466688 2.5857001,4.59900018 L3.74580015,5.28030021 C4.25367275,4.42121598 4.36461982,3.38428761 4.05000016,2.4372001 L4.05000016,2.4372001 Z" id="Path_205"></path>
                                    <path d="M6.51330026,1.62000006 L6.51330026,1.62000006 L5.24070021,2.04300008 L5.24070021,2.04300008 C5.66840091,3.33231738 5.51709298,4.74364945 4.82580019,5.91300023 L5.98050024,6.59070026 C6.8677613,5.08854522 7.06203637,3.27607694 6.51330026,1.62000006 L6.51330026,1.62000006 Z" id="Path_206"></path>
                                    <path d="M9.06120036,0.770400031 L9.06120036,0.770400031 L7.78860031,1.19340005 L7.78860031,1.19340005 C8.46056854,3.2183999 8.22327383,5.43511979 7.13790028,7.27200029 L8.29260033,7.94970032 C9.57520715,5.78043512 9.85552917,3.16201737 9.06120036,0.770400031 Z" id="Path_207"></path>
                                    <path d="M1.58400006,1.58220006 L0.76590003,3.52890014 L2.77920011,2.86020011 C2.58448151,2.28133223 2.14854844,1.81519898 1.58400006,1.58220006 Z" id="Path_208"></path>
                                </g>
                            </g>
                            <path d="M14.0697006,13.6044005 C15.5623045,12.8692007 16.2017655,11.0819007 15.5143051,9.5667164 C14.8268446,8.05153213 13.0607386,7.35567175 11.5245005,7.99470032 L14.0697006,13.6044005 Z" id="Path_209" fill="#2AB0C3" fill-rule="nonzero"></path>
                            <polygon id="Path_210" fill="#2AB0C3" fill-rule="nonzero" points="9.21240037 25.682401 0.342900014 25.682401 2.02860008 17.9190007 7.5267003 17.9190007"></polygon>
                            <polygon id="Path_211" fill="#FFFFFF" fill-rule="nonzero" opacity="0.25" style="mix-blend-mode: overlay;" points="7.5267003 17.9199007 0.342900014 25.683301 9.21240037 25.683301"></polygon>
                            <polygon id="Path_212" fill="#2F5971" fill-rule="nonzero" opacity="0.35" style="mix-blend-mode: multiply;" points="9.21240037 25.682401 0.342900014 25.682401 0.481500019 25.046101 9.07470036 25.046101"></polygon>
                            <path d="M8.02170032,2.66670011 C3.68025239,4.80001443 1.81834276,9.99600966 3.8168308,14.4011482 C5.81531883,18.8062868 10.9514573,20.8274635 15.4161006,18.9657008 L8.02170032,2.66670011 Z" id="Path_213" fill="#2AB0C3" fill-rule="nonzero"></path>
                            <path d="M7.66260041,15.9813006 C7.66260041,18.0122727 6.01617218,19.6587008 3.98520016,19.6587008 C1.95422814,19.6587008 0.307800012,18.0122727 0.307800012,15.9813006 C0.307800012,13.9503286 1.95422814,12.3039004 3.98520016,12.3039004 C4.9605805,12.3036617 5.89608038,12.6910243 6.58577845,13.3807223 C7.27547653,14.0704204 7.6628391,15.0059203 7.66260041,15.9813006 L7.66260041,15.9813006 Z" id="Path_214" fill="#2AB0C3" fill-rule="nonzero"></path>
                            <circle id="Ellipse_33" fill="#2F5971" fill-rule="nonzero" opacity="0.35" style="mix-blend-mode: multiply;" cx="3.98520016" cy="15.9813006" r="2.6001001"></circle>
                        </g>
                    </g>
                    <g id="Group_107" transform="translate(66.348003, 112.680004)" fill-rule="nonzero">
                        <circle id="Ellipse_34" fill="#FFFFFF" transform="translate(23.488910, 23.855396) rotate(-80.735476) translate(-23.488910, -23.855396) " cx="23.4889101" cy="23.8553955" r="20.1888092"></circle>
                        <g id="Group_106" transform="translate(8.100000, 17.100001)">
                            <polygon id="Path_215" fill="#2F5971" points="25.892101 7.90470031 12.6819005 7.90470031 12.6819005 1.24920005 29.0889012 1.24920005"></polygon>
                            <circle id="Ellipse_35" fill="#2F5971" cx="26.256601" cy="4.57740018" r="2.83320011"></circle>
                            <rect id="Rectangle_81" fill="#2F5971" x="5.79960023" y="3.74490015" width="5.0670002" height="1.66410007"></rect>
                            <rect id="Rectangle_82" fill="#2F5971" opacity="0.35" style="mix-blend-mode: multiply;" x="5.79960023" y="4.57740018" width="5.0670002" height="1"></rect>
                            <path d="M15.0705007,4.57740018 C15.0700036,6.50884371 13.5039442,8.0742316 11.5725006,8.07390032 C9.64105705,8.07356894 8.07553482,6.50764384 8.07570045,4.57620026 C8.07586608,2.64475668 9.64165687,1.07910004 11.5731005,1.07910004 C12.5008246,1.07910004 13.3905384,1.44769858 14.0464541,2.103783 C14.7023697,2.75986743 15.0707393,3.64967607 15.0705007,4.57740018 L15.0705007,4.57740018 Z" id="Path_216" fill="#2F5971"></path>
                            <rect id="Rectangle_83" fill="#2F5971" transform="translate(5.078128, 9.340923) rotate(7.686000) translate(-5.078128, -9.340923) " x="4.15337807" y="5.02137277" width="1.84950007" height="8.63910034"></rect>
                            <rect id="Rectangle_84" fill="#2F5971" opacity="0.35" style="mix-blend-mode: multiply;" transform="translate(5.543679, 9.403132) rotate(7.685000) translate(-5.543679, -9.403132) " x="5.08917865" y="5.08358186" width="1" height="8.63910034"></rect>
                            <g id="Group_104" transform="translate(0.000000, 12.600001)" fill="#2F5971">
                                <rect id="Rectangle_85" x="1.33740005" y="0.580500023" width="6.31530025" height="1.73970007"></rect>
                                <rect id="Rectangle_86" x="0.619200025" y="2.31930009" width="7.75170031" height="1"></rect>
                            </g>
                            <rect id="Rectangle_87" fill="#2F5971" opacity="0.44" style="mix-blend-mode: multiply;" x="1.33740005" y="14.6430006" width="6.31530025" height="1"></rect>
                            <polygon id="Path_217" fill="#FFFFFF" opacity="0.25" style="mix-blend-mode: overlay;" points="1.33740005 14.9193006 7.6527003 13.1796005 7.6527003 14.9193006"></polygon>
                            <g id="Group_105" transform="translate(9.900000, 0.000000)">
                                <rect id="Rectangle_88" fill="#2F5971" x="0.363600014" y="0.140400006" width="2.72070011" height="8.87400035"></rect>
                                <polygon id="Path_218" fill="#FFFFFF" opacity="0.25" style="mix-blend-mode: overlay;" points="0.360000014 9.01440036 3.08070012 0.140400006 3.08070012 9.01440036"></polygon>
                            </g>
                            <rect id="Rectangle_89" fill="#2F5971" opacity="0.35" style="mix-blend-mode: multiply;" x="12.9843005" y="1.24920005" width="1" height="6.65550026"></rect>
                            <polygon id="Path_219" fill="#2F5971" opacity="0.25" style="mix-blend-mode: multiply;" points="10.2600004 7.82190031 10.0863004 7.74630031 10.0863004 1.40670006 10.2600004 1.33200005"></polygon>
                            <path d="M7.28370029,4.57740018 C7.28370029,5.39704601 6.61924606,6.06150024 5.79960023,6.06150024 C4.9799544,6.06150024 4.31550017,5.39704601 4.31550017,4.57740018 C4.31550017,3.75775435 4.9799544,3.09330012 5.79960023,3.09330012 C6.19320804,3.09330012 6.5706947,3.24966022 6.84901745,3.52798297 C7.1273402,3.80630572 7.28370029,4.18379237 7.28370029,4.57740018 L7.28370029,4.57740018 Z" id="Path_220" fill="#2F5971"></path>
                            <path d="M6.63300026,4.57740018 C6.63300026,4.91447903 6.42994886,5.21836692 6.11852862,5.34736141 C5.80710837,5.47635591 5.44864815,5.40505374 5.21029742,5.166703 C4.97194668,4.92835226 4.90064451,4.56989205 5.029639,4.2584718 C5.15863349,3.94705155 5.46252138,3.74400015 5.79960023,3.74400015 C6.25987436,3.74400015 6.63300026,4.11712605 6.63300026,4.57740018 Z" id="Path_221" fill="#2F5971" opacity="0.35" style="mix-blend-mode: multiply;"></path>
                            <polygon id="Path_222" fill="#FFFFFF" opacity="0.25" style="mix-blend-mode: overlay;" points="25.892101 7.90470031 15.9858006 7.90470031 18.7083007 1.24920005 29.0880012 1.24920005"></polygon>
                        </g>
                    </g>
                    <g id="Group_113" transform="translate(0.648000, 109.080004)" fill-rule="nonzero">
                        <circle id="Ellipse_36" fill="#FFFFFF" cx="20.4399008" cy="20.7081008" r="20.1879008"></circle>
                        <g id="Group_112" transform="translate(10.800000, 9.900000)">
                            <g id="Group_109" transform="translate(2.700000, 0.000000)">
                                <rect id="Rectangle_90" fill="#2AB0C3" transform="translate(6.939900, 4.811400) rotate(90.000000) translate(-6.939900, -4.811400) " x="2.77920011" y="1.73880007" width="8.32140033" height="6.14520024"></rect>
                                <rect id="Rectangle_91" fill="#2AB0C3" opacity="0.56" style="mix-blend-mode: multiply;" transform="translate(6.939900, 8.608050) rotate(90.000000) translate(-6.939900, -8.608050) " x="6.57585026" y="5.53545022" width="1" height="6.14520024"></rect>
                                <rect id="Rectangle_92" fill="#FFFFFF" opacity="0.25" style="mix-blend-mode: overlay;" transform="translate(8.476200, 4.811400) rotate(90.000000) translate(-8.476200, -4.811400) " x="4.31550017" y="3.27510013" width="8.32140033" height="3.07260012"></rect>
                                <g id="Group_108" transform="translate(0.000000, 8.100000)">
                                    <polygon id="Path_223" fill="#2AB0C3" points="6.93990028 7.25310029 0.531900021 0.837000033 13.3479005 0.837000033"></polygon>
                                    <polygon id="Path_224" fill="#FFFFFF" opacity="0.25" style="mix-blend-mode: overlay;" points="6.93990028 7.25310029 13.3479005 0.837000033 6.93990028 0.837000033"></polygon>
                                </g>
                            </g>
                            <g id="Group_111" transform="translate(0.000000, 13.500001)">
                                <g id="Group_110" fill="#2F5971">
                                    <polygon id="Path_225" points="18.9828008 7.4700003 0.297000012 7.4700003 0.297000012 0.74610003 2.71440011 0.74610003 2.71440011 5.0526002 16.5654007 5.0526002 16.5654007 0.74610003 18.9828008 0.74610003"></polygon>
                                </g>
                                <polygon id="Path_226" fill="#FFFFFF" opacity="0.25" style="mix-blend-mode: overlay;" points="1.46880006 0.741600029 1.46880006 6.21900025 17.7372007 6.21900025 17.7372007 0.741600029 16.5672007 0.741600029 16.5672007 5.0481002 2.71620011 5.0481002 2.71620011 0.741600029"></polygon>
                            </g>
                        </g>
                    </g>
                    <circle id="Ellipse_37" fill="#FFFFFF" fill-rule="nonzero" transform="translate(125.126307, 28.549801) rotate(-45.000000) translate(-125.126307, -28.549801) " cx="125.126307" cy="28.5498011" r="20.1879008"></circle>
                    <circle id="Ellipse_38" fill="#FFFFFF" fill-rule="nonzero" transform="translate(62.838668, 59.394771) rotate(-77.394000) translate(-62.838668, -59.394771) " cx="62.8386683" cy="59.3947707" r="20.1879008"></circle>
                    <g id="Group_116" transform="translate(112.248004, 19.080001)" fill-rule="nonzero">
                        <rect id="Rectangle_93" fill="#2AB0C3" x="1.69200007" y="0.405000016" width="22.3704009" height="14.4621006"></rect>
                        <rect id="Rectangle_94" fill="#2AB0C3" opacity="0.56" style="mix-blend-mode: multiply;" x="1.69200007" y="14.4972006" width="22.3704009" height="1"></rect>
                        <rect id="Rectangle_95" fill="#FFFFFF" x="3.45330014" y="2.5443001" width="18.8487007" height="11.2860004"></rect>
                        <rect id="Rectangle_96" fill="#A9DAE8" x="0.531900021" y="14.8671006" width="24.691501" height="1.86840007"></rect>
                        <path d="M13.1697005,1.47420006 C13.1700645,1.59266828 13.0989329,1.69965708 12.9895518,1.74516119 C12.8801707,1.7906653 12.7541432,1.7656975 12.6703732,1.68192742 C12.5866031,1.59815734 12.5616353,1.47212991 12.6071394,1.36274879 C12.6526435,1.25336768 12.7596323,1.18223609 12.8781005,1.18260005 C13.0391468,1.18260005 13.1697005,1.31315382 13.1697005,1.47420006 L13.1697005,1.47420006 Z" id="Path_227" fill="#808080"></path>
                        <g id="Group_115" transform="translate(5.400000, 3.600000)" fill="#D6E0E3">
                            <g id="Group_114">
                                <rect id="Rectangle_97" x="0.127800005" y="0.769500031" width="5.65290022" height="3.52980014"></rect>
                                <rect id="Rectangle_98" x="0.127800005" y="4.88970019" width="5.65290022" height="1"></rect>
                                <rect id="Rectangle_99" x="0.127800005" y="5.92470024" width="5.65290022" height="1"></rect>
                                <rect id="Rectangle_100" x="0.127800005" y="6.96060028" width="5.65290022" height="1"></rect>
                                <rect id="Rectangle_101" x="0.127800005" y="7.99650032" width="5.65290022" height="1"></rect>
                            </g>
                            <rect id="Rectangle_102" x="7.10550028" y="0.769500031" width="7.72200031" height="7.72200031"></rect>
                        </g>
                        <rect id="Rectangle_103" fill="#FFFFFF" opacity="0.65" style="mix-blend-mode: overlay;" x="0.531900021" y="14.8671006" width="24.691501" height="1"></rect>
                        <polygon id="Path_228" fill="#FFFFFF" opacity="0.25" style="mix-blend-mode: overlay;" points="1.69200007 14.8671006 24.063301 0.405000016 24.063301 14.8671006"></polygon>
                    </g>
                    <g id="Group_118" transform="translate(51.048002, 51.480002)" fill-rule="nonzero">
                        <g id="Group_117" fill="#FBBF31">
                            <polygon id="Path_229" points="0.622800025 0.842400033 0.622800025 14.8410006 8.66790034 7.10640028"></polygon>
                            <polygon id="Path_230" points="22.9581009 14.8419006 22.9581009 0.842400033 14.9121006 7.10640028"></polygon>
                            <polygon id="Path_231" points="11.7900005 9.54000038 9.42210037 7.69590031 1.32210005 15.4809006 22.2570009 15.4809006 14.1570006 7.69590031"></polygon>
                            <polygon id="Path_232" points="22.0500009 0.350100014 14.2200006 6.44310026 13.8456006 6.73650027 13.4703005 7.02990028 11.7900005 8.33760033 10.1133004 7.03080028 9.73350039 6.73740027 9.35820037 6.44400026 1.52820006 0.351000014"></polygon>
                        </g>
                        <rect id="Rectangle_104" fill="#FFFFFF" opacity="0.25" style="mix-blend-mode: overlay;" x="11.7900005" y="0.350100014" width="11.1681004" height="15.1290006"></rect>
                    </g>
                    <g id="Group_122" transform="translate(113.148004, 69.480003)">
                        <circle id="Ellipse_39" fill="#FFFFFF" fill-rule="nonzero" cx="20.7999008" cy="20.5416008" r="20.1879008"></circle>
                        <g id="Group_121" transform="translate(7.200000, 11.700000)">
                            <g id="Group_119">
                                <path d="M13.9950006,3.43710014 C9.60731346,3.48315537 5.45435862,5.42621177 2.6073001,8.76510035 L4.70340019,10.5651004 C7.03191543,7.83187845 10.4307163,6.24197896 14.0211509,6.20641985 C17.6115856,6.17086074 21.0412089,7.69313256 23.4234009,10.3797004 L25.483501,8.54190034 C22.5720663,5.25945741 18.3824077,3.39782455 13.9950006,3.43710014 L13.9950006,3.43710014 Z" id="Path_233"></path>
                                <path d="M14.0490006,8.95950036 C11.2535021,8.98871844 8.60746267,10.2264032 6.79320027,12.3534005 L8.74800035,14.0292006 C10.0790133,12.4664244 12.0220767,11.5573105 14.0747456,11.5369409 C16.1274146,11.5165713 18.0881366,12.3869461 19.4499008,13.9230006 L21.3705008,12.2130005 C19.5154333,10.1206116 16.8451976,8.93402249 14.0490006,8.95950036 Z" id="Path_234"></path>
                                <path d="M14.1021006,14.2947006 C12.8465871,14.3107929 11.6598597,14.8709912 10.8495004,15.8301006 L14.1453006,18.6561007 L17.3853007,15.7653006 C16.5559001,14.822239 15.3579624,14.2856627 14.1021006,14.2947006 L14.1021006,14.2947006 Z" id="Path_235"></path>
                                <path d="M14.1021006,14.2947006 C15.357649,14.2859243 16.5552064,14.8224773 17.3844007,15.7653006 L19.4499008,13.9230006 C18.0881366,12.3869461 16.1274146,11.5165713 14.0747456,11.5369409 C12.0220767,11.5573105 10.0790133,12.4664244 8.74800035,14.0292006 L10.8495004,15.8292006 C11.6600283,14.8704267 12.8467317,14.3105681 14.1021006,14.2947006 L14.1021006,14.2947006 Z" id="Path_236" fill="#FBBF31" fill-rule="nonzero"></path>
                                <path d="M14.0490006,8.95950036 C16.8446287,8.93311161 19.5147724,10.1183469 21.3705008,12.2094005 L23.4252009,10.3761004 C21.0430089,7.68953256 17.6133856,6.16726074 14.0229509,6.20281985 C10.4325163,6.23837896 7.03371543,7.82827845 4.70520019,10.5615004 L6.79500027,12.3534005 C8.60885143,10.2268741 11.2541327,8.98923692 14.0490006,8.95950036 Z" id="Path_237" fill="#FBBF31" fill-rule="nonzero"></path>
                                <path d="M13.9950006,3.43710014 C18.3824651,3.39639151 22.5727917,5.25671665 25.485301,8.53830034 L27.5400011,6.70500027 C24.1010227,2.82674117 19.149891,0.62943851 13.9667661,0.681224877 C8.78364122,0.733011245 3.87740155,3.02880226 0.516600021,6.97500028 L2.6073001,8.76690035 C5.4540232,5.42734136 9.60702565,3.48360624 13.9950006,3.43710014 Z" id="Path_238" fill="#FBBF31" fill-rule="nonzero"></path>
                            </g>
                            <g id="Group_120" opacity="0.25" style="mix-blend-mode: overlay;" transform="translate(10.800000, 0.000000)" fill="#FFFFFF" fill-rule="nonzero">
                                <path d="M3.19500013,3.43710014 L3.19500013,3.43710014 L3.22200013,6.20190025 L3.22200013,6.20190025 C6.81241881,6.16867432 10.2415264,7.69089876 12.6252005,10.3761004 L14.6853006,8.53830034 C11.7727912,5.25671665 7.58246466,3.39639151 3.19500013,3.43710014 Z" id="Path_239"></path>
                                <path d="M3.24900013,8.95950036 L3.24900013,8.95950036 L3.27510013,11.5371005 L3.27510013,11.5371005 C5.32732532,11.5182193 7.28732901,12.3882745 8.64990034,13.9230006 L10.5705004,12.2130005 C8.7154329,10.1206116 6.04519713,8.93402249 3.24900013,8.95950036 L3.24900013,8.95950036 Z" id="Path_240"></path>
                                <path d="M3.30210013,14.2947006 L3.30210013,14.2947006 L3.34530013,18.6561007 L3.34530013,18.6561007 L6.58530026,15.7653006 C5.75589967,14.822239 4.55796193,14.2856627 3.30210013,14.2947006 L3.30210013,14.2947006 Z" id="Path_241"></path>
                                <path d="M3.27510013,11.5371005 L3.27510013,11.5371005 L3.30210013,14.2947006 L3.30210013,14.2947006 C4.55764858,14.2859243 5.75520599,14.8224773 6.58440026,15.7653006 L8.64990034,13.9230006 C7.28732901,12.3882745 5.32732532,11.5182193 3.27510013,11.5371005 L3.27510013,11.5371005 Z" id="Path_242"></path>
                                <path d="M3.22200013,6.20190025 L3.22200013,6.20190025 L3.24900013,8.95950036 L3.24900013,8.95950036 C6.04462828,8.93311161 8.71477199,10.1183469 10.5705004,12.2094005 L12.6252005,10.3761004 C10.2415264,7.69089876 6.81241881,6.16867432 3.22200013,6.20190025 L3.22200013,6.20190025 Z" id="Path_243"></path>
                                <path d="M3.16710013,0.680400027 L3.16710013,0.680400027 L3.19500013,3.43710014 L3.19500013,3.43710014 C7.58246466,3.39639151 11.7727912,5.25671665 14.6853006,8.53830034 L16.7400007,6.70500027 C13.2996742,2.82867941 8.34969808,0.631534632 3.16710013,0.680400027 L3.16710013,0.680400027 Z" id="Path_244"></path>
                                <path d="M0.049500002,15.8301006 L3.34530013,18.6561007 L3.30210013,14.2947006 C2.04658668,14.3107929 0.859859283,14.8709912 0.049500002,15.8301006 L0.049500002,15.8301006 Z" id="Path_245"></path>
                            </g>
                        </g>
                    </g>
                    <circle id="Ellipse_40" fill="#FF9C00" fill-rule="nonzero" cx="171.500407" cy="49.450502" r="4.27500017"></circle>
                    <path d="M122.987705,162.412206 C124.150352,163.028649 124.827163,164.284771 124.702524,165.594815 C124.577886,166.904859 123.676345,168.010816 122.418311,168.396953 C121.160278,168.78309 119.793516,168.373358 118.95538,167.358825 C118.117243,166.344293 117.972799,164.924767 118.589405,163.762207 C118.993326,162.999626 119.683806,162.428878 120.50877,162.175666 C121.333733,161.922454 122.225515,162.007548 122.987705,162.412206 L122.987705,162.412206 Z" id="Path_246" fill="#FBBF31" fill-rule="nonzero"></path>
                    <path d="M237.005109,107.335804 C238.592337,108.177858 239.196488,110.147133 238.354558,111.734426 C237.512627,113.321718 235.5434,113.926023 233.956041,113.084216 C232.368683,112.242409 231.764225,110.273228 232.605909,108.685804 C233.010184,107.923339 233.70083,107.352733 234.525869,107.09955 C235.350909,106.846367 236.242738,106.931352 237.005109,107.335804 L237.005109,107.335804 Z" id="Path_247" fill="#FBBF31" fill-rule="nonzero"></path>
                    <path d="M85.5675034,97.2981039 C87.1547308,98.1401579 87.7588824,100.109432 86.9169518,101.696725 C86.0750212,103.284018 84.1057935,103.888323 82.5184353,103.046515 C80.9310771,102.204708 80.3266193,100.235528 81.1683032,98.6481039 C81.5725779,97.8856382 82.2632235,97.3150327 83.088263,97.0618495 C83.9133026,96.8086663 84.8051319,96.8936515 85.5675034,97.2981039 L85.5675034,97.2981039 Z" id="Path_248" fill="#FF9C00" fill-rule="nonzero"></path>
                    <path d="M51.9759021,162.630006 C53.5631294,163.47206 54.1672811,165.441335 53.3253504,167.028628 C52.4834198,168.615921 50.5141922,169.220225 48.926834,168.378418 C47.3394758,167.536611 46.735018,165.56743 47.5767019,163.980007 C47.9809765,163.217541 48.6716222,162.646935 49.4966617,162.393752 C50.3217013,162.140569 51.2135306,162.225554 51.9759021,162.630006 Z" id="Path_249" fill="#FBBF31" fill-rule="nonzero"></path>
                    <path d="M183.348007,228.454209 C184.510655,229.070651 185.187465,230.326774 185.062827,231.636818 C184.938188,232.946862 184.036647,234.052819 182.778614,234.438956 C181.52058,234.825093 180.153819,234.415361 179.315682,233.400828 C178.477545,232.386295 178.333101,230.96677 178.949707,229.804209 C179.791559,228.216965 181.760645,227.612581 183.348007,228.454209 L183.348007,228.454209 Z" id="Path_250" fill="#2AB0C3" fill-rule="nonzero"></path>
                    <path d="M233.580609,182.836807 C235.167837,183.678861 235.771988,185.648136 234.930058,187.235429 C234.088127,188.822721 232.118899,189.427026 230.531541,188.585219 C228.944183,187.743412 228.339725,185.774231 229.181409,184.186807 C229.585684,183.424342 230.276329,182.853736 231.101369,182.600553 C231.926408,182.34737 232.818238,182.432355 233.580609,182.836807 L233.580609,182.836807 Z" id="Path_251" fill="#FF9C00" fill-rule="nonzero"></path>
                    <path d="M81.6831032,247.70341 C82.8457506,248.319852 83.5225613,249.575975 83.3979226,250.886019 C83.273284,252.196063 82.3717432,253.30202 81.1137097,253.688157 C79.8556762,254.074293 78.4889147,253.664562 77.650778,252.650029 C76.8126413,251.635496 76.6681971,250.21597 77.2848031,249.05341 C78.1269975,247.466581 80.0956901,246.862317 81.6831032,247.70341 L81.6831032,247.70341 Z" id="Path_252" fill="#FBBF31" fill-rule="nonzero"></path>
                </g>
            </g>
        </g>
    </g>
</svg>